<svg xmlns="http://www.w3.org/2000/svg" width="150" height="26" viewBox="0 0 150 26" fill="none">
  <g clip-path="url(#clip0_355_5024)">
    <path d="M137.3 0C134.156 0 131.278 1.14302 129.061 3.03747C128.558 3.4661 128.113 4.14344 128.113 5.31821V20.0928C128.113 21.1935 128.42 21.802 128.918 22.2465C131.14 24.2309 134.088 25.411 137.3 25.411C144.317 25.411 150.005 19.7224 150.005 12.7055C150.005 5.68863 144.311 0 137.3 0Z" fill="#00A9A9"/>
    <path d="M31.6818 12.97C33.4704 12.97 34.9257 11.5148 34.9257 9.72618C34.9257 9.11763 34.7563 8.55141 34.46 8.06457H35.9523V6.37121H32.6238V5.01123H30.7399V6.37121H27.4114V8.06457H28.9089C28.6179 8.55141 28.4433 9.11763 28.4433 9.72618C28.4433 11.5148 29.8932 12.97 31.6818 12.97ZM31.6818 8.29212C32.4703 8.29212 33.1159 8.93771 33.1159 9.72618C33.1159 10.5147 32.4703 11.1602 31.6818 11.1602C30.8933 11.1602 30.2478 10.5147 30.2478 9.72618C30.2478 8.93771 30.8933 8.29212 31.6818 8.29212Z" fill="black"/>
    <path d="M37.2434 13.8856H28.5967V15.5895H37.2434V19.4895H39.0849V10.2819V8.57794V6.00085H37.2434V13.8856Z" fill="black"/>
    <path d="M41.1435 8.57788H39.085V10.2818H41.1435V8.57788Z" fill="black"/>
    <path d="M55.3835 7.72067H59.2677V14.5788H61.1463V6.00085H55.3835V7.72067Z" fill="black"/>
    <path d="M65.7766 9.42462H64.2896V6.00085H62.4375V18.7487H64.2896V11.1444H65.7766V18.7487H67.634V6.00085H65.7766V9.42462Z" fill="black"/>
    <path d="M52.3459 7.99055H50.5097V9.69979H52.3459V10.5623H50.5097V12.2716H52.3459V13.8856H43.6992V15.5895H52.3459V19.4895H54.1822V10.1919V8.48798V6.00085H52.3459V7.99055Z" fill="black"/>
    <path d="M49.9225 11.1444H44.5407V10.2819H49.9225V9.0489V8.57265V6.00085H42.6992V7.71009H48.0862V8.57265H42.6992V10.2819L42.7045 11.1444H42.6992V12.8537H49.9225V11.1444Z" fill="black"/>
    <path d="M115.646 7.01158L118.8 12.6949H121.049L117.175 6.00085H114.117L110.248 12.6949H112.492L115.646 7.01158Z" fill="black"/>
    <path d="M116.577 12.6526H114.709V15.5419H109.539V17.2194H121.758V15.5419H116.577V12.6526Z" fill="black"/>
    <path d="M92.3041 7.66246H89.4624C88.8221 6.94808 87.9013 6.4877 86.8694 6.4877C84.9432 6.4877 83.3716 8.05405 83.3716 9.98554C83.3716 11.9117 84.9379 13.4834 86.8694 13.4834C87.9013 13.4834 88.8221 13.023 89.4624 12.3086H92.3041V17.0394H86.2556V14.8434H84.4141V17.0394V18.7487H86.2556H92.3041H94.1403V17.0394V6.00085H92.3041V7.66246ZM86.8694 11.6207C85.9698 11.6207 85.2396 10.8904 85.2396 9.98554C85.2396 9.08595 85.9698 8.35039 86.8694 8.35039C87.769 8.35039 88.5046 9.08065 88.5046 9.98554C88.4993 10.8851 87.769 11.6207 86.8694 11.6207ZM90.2932 10.6788C90.3408 10.4565 90.362 10.2237 90.362 9.98554C90.362 9.74742 90.3355 9.51458 90.2932 9.29232H92.3041V10.6788H90.2932Z" fill="black"/>
    <path d="M106.915 7.67834V6.00085H96.8284V7.67834H105.047V12.6526H95.7595V14.3301H100.94V18.7487H102.808V14.3301H107.978V12.6526H106.915V7.67834Z" fill="black"/>
    <path d="M80.3975 7.9588V6.00085H78.5613V11.7742H77.1537V6.00085H75.3174V7.66246H71.7561V6.00085H69.9146V11.7742V13.1288V13.4834H78.5613V14.4094H69.9146V16.1187V17.0447V18.754H71.7508H80.3975V17.0394H71.7508V16.1134H80.3975V15.9917V13.6845V12.642V10.2713H82.2337V8.57265H80.3975V7.9588ZM71.7508 9.33995H75.3121V11.7794H71.7508V9.33995Z" fill="black"/>
    <path d="M24.0033 6.00615V7.94822H21.8495V9.66275H24.0033V12.896C23.4 12.5256 22.6962 12.3086 21.9236 12.3086C21.8548 12.3086 21.7913 12.3139 21.7225 12.3192L19.4047 6.00615H16.6319L13.8008 13.7109H15.8064L18.0183 7.53017L19.9233 12.8537C18.775 13.531 18.0077 14.7693 18.0077 16.1822C18.0077 18.3253 19.7593 20.061 21.9236 20.061C24.0879 20.061 25.8448 18.3253 25.8501 16.1822V6.00085H24.0033V6.00615ZM21.9236 18.2724C20.77 18.2724 19.8387 17.3358 19.8387 16.1875C19.8387 15.0339 20.7753 14.1025 21.9236 14.1025C23.0772 14.1025 24.0086 15.0392 24.0086 16.1875C24.0086 17.3358 23.0772 18.2724 21.9236 18.2724Z" fill="black"/>
    <path d="M0 14.5787H5.76272V12.8589H1.87857V7.72063H5.76272V6.0061H0V14.5787Z" fill="black"/>
    <path d="M10.393 9.42457H8.90599V6.0061H7.04858V18.7433H8.90599V11.1444H10.393V18.7433H12.2451V6.0061H10.393V9.42457Z" fill="black"/>
  </g>
  <defs>
    <clipPath id="clip0_355_5024">
      <rect width="150" height="25.411" fill="white"/>
    </clipPath>
  </defs>
</svg>