<svg width="240" height="41" viewBox="0 0 240 41" fill="none" xmlns="http://www.w3.org/2000/svg">
<g clip-path="url(#clip0_332_19517)">
<path d="M219.68 0C214.65 0 210.044 1.82883 206.497 4.85994C205.693 5.54576 204.981 6.62951 204.981 8.50914V32.1485C204.981 33.9095 205.472 34.8832 206.268 35.5944C209.824 38.7695 214.54 40.6576 219.68 40.6576C230.907 40.6576 240.008 31.5558 240.008 20.3288C240.008 9.10181 230.898 0 219.68 0Z" fill="white" fill-opacity="0.6"/>
<path d="M50.6907 20.7521C53.5525 20.7521 55.8809 18.4238 55.8809 15.562C55.8809 14.5883 55.61 13.6824 55.1358 12.9034H57.5235V10.194H52.1978V8.01807H49.1837V10.194H43.858V12.9034H46.2541C45.7885 13.6824 45.5091 14.5883 45.5091 15.562C45.5091 18.4238 47.829 20.7521 50.6907 20.7521ZM50.6907 13.2675C51.9523 13.2675 52.9852 14.3004 52.9852 15.562C52.9852 16.8235 51.9523 17.8565 50.6907 17.8565C49.4292 17.8565 48.3962 16.8235 48.3962 15.562C48.3962 14.3004 49.4292 13.2675 50.6907 13.2675Z" fill="white" fill-opacity="0.6"/>
<path d="M59.5894 22.2169H45.7546V24.9432H59.5894V31.1833H62.5358V16.451V13.7247V9.60138H59.5894V22.2169Z" fill="white" fill-opacity="0.6"/>
<path d="M65.8294 13.7247H62.5358V16.451H65.8294V13.7247Z" fill="white" fill-opacity="0.6"/>
<path d="M88.6135 12.3531H94.8282V23.3261H97.8339V9.60138H88.6135V12.3531Z" fill="white" fill-opacity="0.6"/>
<path d="M105.242 15.0794H102.863V9.60138H99.8998V29.9979H102.863V17.8311H105.242V29.9979H108.214V9.60138H105.242V15.0794Z" fill="white" fill-opacity="0.6"/>
<path d="M83.7536 12.7849H80.8156V15.5197H83.7536V16.8998H80.8156V19.6345H83.7536V22.2169H69.9188V24.9432H83.7536V31.1833H86.6916V16.3071V13.5808V9.60138H83.7536V12.7849Z" fill="white" fill-opacity="0.6"/>
<path d="M79.8758 17.8311H71.265V16.451H79.8758V14.4783V13.7162V9.60138H68.3186V12.3362H76.9378V13.7162H68.3186V16.451L68.3271 17.8311H68.3186V20.5659H79.8758V17.8311Z" fill="white" fill-opacity="0.6"/>
<path d="M185.033 11.2185L190.08 20.3119H193.678L187.48 9.60138H182.587L176.397 20.3119H179.987L185.033 11.2185Z" fill="white" fill-opacity="0.6"/>
<path d="M186.524 20.2441H183.535V24.867H175.263V27.551H194.813V24.867H186.524V20.2441Z" fill="white" fill-opacity="0.6"/>
<path d="M147.686 12.26H143.14C142.115 11.1169 140.642 10.3803 138.991 10.3803C135.909 10.3803 133.395 12.8865 133.395 15.9769C133.395 19.0588 135.901 21.5734 138.991 21.5734C140.642 21.5734 142.115 20.8368 143.14 19.6938H147.686V27.2631H138.009V23.7494H135.062V27.2631V29.9979H138.009H147.686H150.624V27.2631V9.60138H147.686V12.26ZM138.991 18.5931C137.552 18.5931 136.383 17.4247 136.383 15.9769C136.383 14.5375 137.552 13.3606 138.991 13.3606C140.43 13.3606 141.607 14.5291 141.607 15.9769C141.599 17.4162 140.43 18.5931 138.991 18.5931ZM144.469 17.086C144.545 16.7304 144.579 16.3579 144.579 15.9769C144.579 15.5959 144.537 15.2233 144.469 14.8677H147.686V17.086H144.469Z" fill="white" fill-opacity="0.6"/>
<path d="M171.063 12.2854V9.60138H154.926V12.2854H168.075V20.2442H153.215V22.9281H161.504V29.9979H164.493V22.9281H172.765V20.2442H171.063V12.2854Z" fill="white" fill-opacity="0.6"/>
<path d="M128.636 12.7341V9.60138H125.698V18.8387H123.446V9.60138H120.508V12.26H114.81V9.60138H111.863V18.8387V21.0062V21.5734H125.698V23.0551H111.863V25.7899V27.2716V30.0064H114.801H128.636V27.2631H114.801V25.7814H128.636V25.5867V21.8952V20.2272V16.4341H131.574V13.7162H128.636V12.7341ZM114.801 14.9439H120.5V18.8471H114.801V14.9439Z" fill="white" fill-opacity="0.6"/>
<path d="M38.4054 9.60985V12.7172H34.9594V15.4604H38.4054V20.6336C37.4402 20.0409 36.3141 19.6938 35.078 19.6938C34.9679 19.6938 34.8663 19.7023 34.7562 19.7107L31.0478 9.60985H26.6112L22.0814 21.9375H25.2903L28.8295 12.0483L31.8775 20.5659C30.0402 21.6496 28.8125 23.6309 28.8125 25.8915C28.8125 29.3206 31.615 32.0977 35.078 32.0977C38.5409 32.0977 41.3519 29.3206 41.3603 25.8915V9.60138H38.4054V9.60985ZM35.078 29.2359C33.2322 29.2359 31.742 27.7373 31.742 25.9C31.742 24.0542 33.2407 22.5641 35.078 22.5641C36.9237 22.5641 38.4139 24.0627 38.4139 25.9C38.4139 27.7373 36.9237 29.2359 35.078 29.2359Z" fill="white" fill-opacity="0.6"/>
<path d="M0 23.326H9.22035V20.5743H3.00572V12.353H9.22035V9.6098H0V23.326Z" fill="white" fill-opacity="0.6"/>
<path d="M16.6289 15.0794H14.2497V9.6098H11.2778V29.9894H14.2497V17.8311H16.6289V29.9894H19.5922V9.6098H16.6289V15.0794Z" fill="white" fill-opacity="0.6"/>
</g>
<defs>
<clipPath id="clip0_332_19517">
<rect width="240" height="40.6576" fill="white"/>
</clipPath>
</defs>
</svg>
