<svg width="18" height="18" viewBox="0 0 18 18" fill="none" xmlns="http://www.w3.org/2000/svg">
<path d="M8.41903 11.3409V11.2855C8.42519 10.6977 8.48674 10.2299 8.60369 9.8821C8.72064 9.53433 8.88684 9.25272 9.10227 9.03729C9.31771 8.82185 9.57623 8.62334 9.87784 8.44176C10.0594 8.33097 10.2225 8.20017 10.3672 8.04936C10.5118 7.89548 10.6257 7.71851 10.7088 7.51847C10.795 7.31842 10.8381 7.09683 10.8381 6.85369C10.8381 6.55208 10.7673 6.29048 10.6257 6.06889C10.4841 5.8473 10.2949 5.67649 10.0579 5.55646C9.8209 5.43643 9.55777 5.37642 9.26847 5.37642C9.0161 5.37642 8.77296 5.42874 8.53906 5.53338C8.30516 5.63802 8.10973 5.80268 7.95277 6.02734C7.79581 6.25201 7.70502 6.54593 7.6804 6.90909H6.51705C6.54167 6.38589 6.67708 5.93809 6.9233 5.5657C7.17259 5.1933 7.50036 4.90862 7.90661 4.71165C8.31593 4.51468 8.76989 4.41619 9.26847 4.41619C9.81013 4.41619 10.281 4.52391 10.6811 4.73935C11.0843 4.95478 11.3951 5.25024 11.6136 5.62571C11.8352 6.00118 11.946 6.42898 11.946 6.90909C11.946 7.24763 11.8937 7.55386 11.7891 7.82777C11.6875 8.10168 11.5398 8.34635 11.3459 8.56179C11.1551 8.77723 10.9242 8.96804 10.6534 9.13423C10.3826 9.3035 10.1656 9.48201 10.0025 9.66974C9.83937 9.8544 9.72088 10.0745 9.64702 10.3299C9.57315 10.5853 9.53314 10.9039 9.52699 11.2855V11.3409H8.41903ZM9.00994 14.0739C8.7822 14.0739 8.58677 13.9923 8.42365 13.8292C8.26054 13.6661 8.17898 13.4706 8.17898 13.2429C8.17898 13.0152 8.26054 12.8197 8.42365 12.6566C8.58677 12.4935 8.7822 12.4119 9.00994 12.4119C9.23769 12.4119 9.43312 12.4935 9.59624 12.6566C9.75935 12.8197 9.84091 13.0152 9.84091 13.2429C9.84091 13.3937 9.80244 13.5322 9.7255 13.6584C9.65163 13.7846 9.55161 13.8861 9.42543 13.9631C9.30232 14.0369 9.16383 14.0739 9.00994 14.0739Z" fill="#9F9F9F"/>
<circle cx="9" cy="9" r="8.5" stroke="#9F9F9F"/>
</svg>
