<svg width="14" height="16" viewBox="0 0 14 16" fill="none" xmlns="http://www.w3.org/2000/svg">
<g clip-path="url(#clip0_1587_9120)">
<path d="M12 6H10.666V3.334C10.666 1.492 9.174 0 7.334 0H6C4.158 0 2.666 1.492 2.666 3.334V6H1.334C0.6 6 0 6.6 0 7.334V14.668C0 15.4 0.6 16 1.334 16H12C12.734 16 13.334 15.4 13.334 14.666V7.334C13.334 6.6 12.734 6 12 6ZM7.334 11.148V13.334H6V11.148C5.602 10.918 5.334 10.492 5.334 10C5.334 9.264 5.932 8.666 6.668 8.666C7.404 8.666 8 9.264 8 10C8 10.492 7.73 10.918 7.334 11.148ZM9.334 6H4V3.334C4 2.23 4.896 1.334 6 1.334H7.334C8.438 1.334 9.334 2.23 9.334 3.334V6Z" fill="#666666"/>
</g>
<defs>
<clipPath id="clip0_1587_9120">
<rect width="13.334" height="16" fill="white"/>
</clipPath>
</defs>
</svg>
