<?xml version="1.0" encoding="UTF-8"?>
<svg version="1.1" xmlns="http://www.w3.org/2000/svg" width="287" height="359">
  <path
    d="M0 0 C4.51203267 4.18188393 7.33137819 8.34108295 7.68554783 14.5226326 C7.68462604 15.30062588 7.68370424 16.07861916 7.68275452 16.88018799 C7.68481651 18.22628647 7.68481651 18.22628647 7.68692017 19.59957886 C7.68152725 21.06477463 7.68152725 21.06477463 7.67602539 22.55957031 C7.67617142 23.5940329 7.67631744 24.62849548 7.6764679 25.69430542 C7.67577117 29.11393327 7.66798994 32.53350666 7.66015625 35.953125 C7.65829122 38.32395396 7.65686772 40.69478331 7.65586853 43.06561279 C7.65205006 49.30616316 7.64222545 55.54669027 7.63116455 61.78723145 C7.62093606 68.1550261 7.61636782 74.5228245 7.61132812 80.890625 C7.60060262 93.38542689 7.58353419 105.88021151 7.5625 118.375 C8.25174561 118.57660736 8.94099121 118.77821472 9.65112305 118.9859314 C10.55386963 119.25273712 11.45661621 119.51954285 12.38671875 119.79443359 C13.72996216 120.18965714 13.72996216 120.18965714 15.1003418 120.59286499 C28.78217442 124.93906837 39.24754797 136.78781133 45.99609375 148.9609375 C53.59211016 164.33329118 54.63819941 181.08474853 49.5625 197.375 C43.50352832 213.4296971 33.27824981 225.95516363 17.5625 233.375 C15.83214875 233.93369199 14.09318975 234.46620343 12.34790039 234.97631836 C11.45075821 235.24012802 10.55361603 235.50393768 9.62928772 235.77574158 C8.6062278 236.0723745 8.6062278 236.0723745 7.5625 236.375 C7.57249275 238.34031677 7.57249275 238.34031677 7.58268738 240.34533691 C7.643553 252.70438078 7.68849892 265.06339416 7.71793652 277.42255402 C7.73357952 283.77623247 7.75479321 290.12978973 7.78881836 296.48339844 C7.82145997 302.61717416 7.83936329 308.75083344 7.84713173 314.88468933 C7.85266657 317.22260877 7.86347476 319.56052197 7.87969017 321.89839172 C7.90152781 325.17784298 7.90446421 328.45681563 7.90307617 331.73632812 C7.913862 332.6987442 7.92464783 333.66116028 7.9357605 334.65274048 C7.9076218 340.81336363 7.54037417 347.17620652 3.11046124 351.93476105 C-1.89859483 356.21997544 -5.18852756 356.73248001 -11.609375 356.6484375 C-15.99011717 356.22488508 -17.97381339 355.13181179 -21.4375 352.375 C-25.73606882 346.45820602 -25.99553564 341.75868741 -25.89160156 334.57446289 C-25.89218567 333.51030151 -25.89276978 332.44614014 -25.89337158 331.34973145 C-25.89059528 327.84870251 -25.85952337 324.34853561 -25.828125 320.84765625 C-25.82066103 318.41385869 -25.81496884 315.98005511 -25.81097412 313.54624939 C-25.79573025 307.15269261 -25.75645851 300.75950155 -25.7121582 294.36608887 C-25.671179 287.83720852 -25.6529574 281.30826886 -25.6328125 274.77929688 C-25.58996361 261.97770891 -25.52250001 249.17637394 -25.4375 236.375 C-26.36925049 236.23255859 -27.30100098 236.09011719 -28.26098633 235.94335938 C-42.11152393 233.46514467 -53.63069548 222.54142048 -61.49609375 211.49609375 C-71.08516463 196.08026351 -73.10788911 178.98917887 -69.4375 161.375 C-64.76272067 144.4167001 -54.04287129 131.30410244 -38.8671875 122.62890625 C-34.54486957 120.39825664 -30.37786694 118.375 -25.4375 118.375 C-25.44118717 117.81969573 -25.44487434 117.26439146 -25.44867325 116.69225979 C-25.5371228 103.1622919 -25.60300177 89.63237487 -25.64474869 76.10217953 C-25.66561658 69.55897683 -25.69392043 63.01598293 -25.73925781 56.47290039 C-25.78274285 50.15757255 -25.80664311 43.84244546 -25.81700897 37.52697945 C-25.82439547 35.11844282 -25.83881953 32.70991708 -25.86042023 30.30146599 C-25.88948848 26.92591548 -25.89345442 23.55119279 -25.89160156 20.17553711 C-25.90598267 19.18147354 -25.92036377 18.18740997 -25.93518066 17.16322327 C-25.89874026 11.02141357 -25.07329233 7.37951082 -21.4375 2.375 C-15.04021872 -2.71671367 -7.45224674 -3.52288028 0 0 Z M-31.4375 158.375 C-36.50916398 165.42304438 -38.44222505 172.25219613 -38.01171875 180.91015625 C-36.70112157 188.81831746 -33.31544175 195.23473596 -27.1875 200.4375 C-20.75953899 204.87430811 -13.26264705 207.33598297 -5.4375 206.375 C3.84881898 204.02544941 10.02640033 199.84165221 15.9375 192.375 C20.11766104 184.65777962 20.83780437 176.33748156 18.625 167.875 C15.81438215 160.44599601 9.96221055 154.10269853 2.75 150.8125 C-9.66566857 146.08595222 -22.25037633 148.54040286 -31.4375 158.375 Z "
    fill="#000000" transform="translate(71.4375,2.625)" />
  <path
    d="M0 0 C13.1098175 11.06397332 20.92844351 26.37860632 22.56640625 43.41796875 C23.9136656 60.09030327 18.40828606 76.68507191 7.63500977 89.45043945 C0.67799288 97.15763847 -7.20480131 102.19805422 -16.78125 106.109375 C-17.84480713 106.54580322 -18.90836426 106.98223145 -20.00415039 107.43188477 C-20.8058667 107.75729248 -21.60758301 108.0827002 -22.43359375 108.41796875 C-22.43506031 109.58233522 -22.43652687 110.7467017 -22.43803787 111.94635201 C-22.47374055 139.58661854 -22.52998267 167.22678117 -22.6115147 194.86695213 C-22.62153215 198.26904838 -22.63137628 201.67114512 -22.64111328 205.07324219 C-22.64402534 206.08918572 -22.64402534 206.08918572 -22.64699623 207.12565337 C-22.67801658 218.09205722 -22.69499697 229.05844014 -22.70678797 240.02487959 C-22.71919937 251.27762924 -22.74699785 262.53026975 -22.78820682 273.78295696 C-22.81086504 280.10338014 -22.82650181 286.42364652 -22.8254776 292.74411392 C-22.82473358 298.69161995 -22.84258099 304.63877876 -22.87476158 310.58619499 C-22.88328882 312.77028635 -22.88499146 314.95441654 -22.87939644 317.13851738 C-22.8727777 320.11896737 -22.8906268 323.09830575 -22.91461182 326.0786438 C-22.9068514 326.94441201 -22.89909098 327.81018023 -22.8910954 328.70218384 C-22.96794149 334.09044446 -23.88117009 337.12804128 -27.43359375 341.41796875 C-31.25289547 345.04630538 -34.31638381 345.72797333 -39.43359375 345.91796875 C-44.55080369 345.72797333 -47.61429203 345.04630538 -51.43359375 341.41796875 C-55.69353571 336.27363806 -56.00985876 332.4692621 -55.95257568 326.0786438 C-55.96007694 325.14655086 -55.96757819 324.21445793 -55.97530675 323.25411975 C-55.99558245 320.13549475 -55.9874813 317.01759686 -55.97949219 313.89892578 C-55.98822723 311.66160869 -55.99871277 309.42429785 -56.01081848 307.18699646 C-56.0387072 301.11518175 -56.04208252 295.04357061 -56.04109859 288.97170115 C-56.0442252 282.62552728 -56.06983818 276.27944543 -56.09307861 269.93331909 C-56.12904978 259.28236403 -56.15114581 248.63147097 -56.16259766 237.98046875 C-56.17442958 227.01135794 -56.19463291 216.04231507 -56.22607422 205.07324219 C-56.22897837 204.0585347 -56.22897837 204.0585347 -56.23194119 203.02332808 C-56.24170591 199.62956731 -56.251635 196.23580703 -56.26164579 192.84204698 C-56.34444358 164.70072031 -56.39814864 136.55939186 -56.43359375 108.41796875 C-57.6755954 107.90681267 -57.6755954 107.90681267 -58.94268799 107.3853302 C-60.02668884 106.93695297 -61.1106897 106.48857574 -62.22753906 106.02661133 C-63.30304016 105.58271561 -64.37854126 105.13881989 -65.4866333 104.68147278 C-80.81251875 98.11052677 -90.59325508 86.43548763 -97.24609375 71.41796875 C-103.08093579 56.54296025 -103.09743367 40.25328816 -97.24609375 25.35546875 C-90.38515704 10.00863664 -79.63337245 -2.95657056 -63.57421875 -9.16015625 C-41.75336965 -16.90493805 -18.47630059 -14.51670799 0 0 Z M-59.52734375 27.46484375 C-65.60403937 33.69096631 -67.83959689 40.17099645 -68.80859375 48.73046875 C-67.88020476 57.85962716 -64.30407922 65.31247431 -57.43359375 71.41796875 C-50.40777678 76.53459633 -42.99954945 78.41606683 -34.43359375 77.41796875 C-26.27920184 75.36089405 -19.33984487 71.10990154 -14.86328125 63.8828125 C-10.78117226 55.96352106 -9.25639049 49.39185769 -11.49609375 40.54296875 C-13.88001945 33.25813535 -18.11569711 27.50595379 -24.68359375 23.48046875 C-36.82990383 17.58200683 -49.15214254 18.51811227 -59.52734375 27.46484375 Z "
    fill="#000000" transform="translate(264.43359375,13.58203125)" />
</svg>